<?xml version="1.0" standalone="no"?>
<!DOCTYPE svg PUBLIC "-//W3C//DTD SVG 20010904//EN"
 "http://www.w3.org/TR/2001/REC-SVG-20010904/DTD/svg10.dtd">
<svg version="1.0" xmlns="http://www.w3.org/2000/svg"
 width="1024.000000pt" height="1024.000000pt" viewBox="0 0 1024.000000 1024.000000"
 preserveAspectRatio="xMidYMid meet">
<metadata>
Created by potrace 1.16, written by Peter Selinger 2001-2019
</metadata>
<g transform="translate(0.000000,1024.000000) scale(0.100000,-0.100000)"
fill="#000000" stroke="none">
<path d="M6075 7613 c-70 -96 -125 -271 -125 -397 0 -139 45 -278 165 -511 51
-99 104 -212 118 -250 33 -93 50 -212 42 -289 -15 -137 -92 -295 -184 -378
-45 -40 -52 -69 -20 -91 31 -22 54 -11 120 61 73 81 143 216 165 322 20 95 13
246 -16 350 -11 43 -70 174 -135 305 -132 264 -155 335 -155 484 0 134 30 234
99 335 35 50 38 68 15 90 -27 27 -52 18 -89 -31z"/>
<path d="M5597 7318 c-39 -31 -49 -216 -18 -340 25 -96 60 -180 123 -292 163
-291 206 -436 178 -601 -10 -61 -10 -77 0 -90 21 -25 63 -15 80 20 22 45 20
260 -3 345 -21 74 -92 227 -176 380 -113 205 -146 333 -122 477 13 75 12 78
-9 95 -26 21 -31 22 -53 6z"/>
<path d="M8183 6949 c-26 -23 -133 -121 -238 -218 -104 -98 -291 -269 -415
-382 -324 -296 -293 -264 -287 -303 5 -33 2 -37 -103 -126 l-108 -91 -7 -67
c-4 -37 -8 -72 -10 -78 -1 -5 -63 -23 -136 -38 -74 -15 -298 -63 -499 -106
-201 -43 -384 -82 -406 -86 l-42 -6 -6 -77 c-36 -412 -188 -718 -458 -921
-133 -100 -376 -206 -528 -229 -77 -12 -185 -52 -168 -62 32 -18 176 -61 263
-79 473 -99 950 -10 1336 249 366 245 611 598 718 1033 35 141 57 321 41 326
-5 2 -10 21 -10 42 0 40 -8 31 178 194 17 15 25 17 34 8 32 -32 63 -14 254
146 508 425 801 676 816 700 38 58 11 140 -61 189 -54 37 -100 31 -158 -18z"/>
<path d="M4155 6785 c-433 -69 -798 -257 -923 -475 -18 -30 -32 -59 -32 -63 0
-5 19 5 42 22 22 17 64 38 92 47 31 10 68 33 96 59 135 128 345 224 640 291
118 27 138 29 355 29 212 0 240 -2 355 -27 144 -31 173 -41 294 -97 341 -158
543 -415 626 -796 52 -243 30 -553 -54 -769 -103 -262 -285 -435 -563 -536
-47 -17 -63 -27 -63 -42 0 -10 -7 -34 -14 -53 -18 -43 -15 -44 90 -9 274 89
487 272 610 524 137 279 162 693 63 1035 -31 104 -119 279 -187 371 -180 241
-454 403 -801 476 -129 27 -492 34 -626 13z"/>
<path d="M3897 6396 c-21 -8 -46 -21 -56 -30 -14 -13 -24 -14 -45 -6 -85 32
-218 -9 -265 -82 -23 -36 -27 -38 -80 -38 -109 0 -225 -86 -253 -188 -11 -36
-19 -47 -40 -53 -81 -22 -142 -109 -143 -205 -1 -56 -4 -64 -31 -87 -38 -32
-80 -110 -88 -163 -3 -23 0 -63 8 -93 12 -48 12 -54 -10 -98 -28 -55 -31 -123
-8 -178 14 -35 14 -41 -3 -79 -35 -77 -19 -187 35 -249 13 -14 16 -36 14 -90
-2 -65 0 -77 28 -125 22 -38 44 -60 79 -80 45 -25 50 -30 55 -73 13 -95 96
-179 193 -195 38 -6 45 -11 64 -51 45 -93 173 -148 265 -112 23 8 36 6 73 -15
57 -30 125 -40 171 -23 33 11 38 10 83 -20 66 -44 117 -56 214 -50 96 6 178
39 229 92 31 33 35 35 73 26 84 -19 191 25 233 95 13 22 27 34 42 34 12 0 47
12 77 28 72 36 109 89 116 168 5 57 7 60 49 86 74 46 123 154 109 240 -6 33
-3 43 29 79 68 80 84 199 39 286 l-21 41 24 48 c33 65 33 152 0 218 -21 42
-24 57 -19 121 5 62 2 80 -16 119 -25 50 -79 103 -121 118 -24 8 -28 15 -33
64 -11 110 -96 208 -203 235 -33 9 -45 17 -52 38 -14 40 -69 99 -113 122 -24
12 -58 19 -92 19 -42 0 -58 5 -73 21 -10 12 -41 34 -69 50 -42 24 -61 29 -120
28 -38 0 -83 -5 -99 -12 -25 -11 -35 -10 -74 10 -52 26 -117 29 -175 9z m129
-92 c19 -9 42 -29 51 -45 20 -33 26 -35 44 -13 21 25 85 54 121 54 18 0 49 -8
68 -18 31 -15 45 -32 85 -96 9 -15 14 -14 57 1 43 16 51 16 90 3 55 -19 88
-67 88 -126 l0 -43 59 0 c64 1 102 -14 140 -55 31 -33 50 -107 40 -160 -8 -43
0 -56 34 -56 30 0 94 -38 116 -69 30 -42 36 -107 13 -156 l-18 -40 33 -43 c51
-68 46 -144 -16 -215 l-31 -34 21 -19 c59 -53 79 -154 43 -215 -18 -30 -66
-71 -95 -81 -6 -2 -4 -18 6 -40 18 -44 20 -120 4 -151 -22 -43 -63 -77 -113
-93 -28 -9 -52 -17 -53 -18 -1 -1 5 -21 13 -45 35 -103 -25 -178 -138 -173
-40 2 -48 -1 -48 -15 0 -29 -37 -82 -72 -103 -42 -25 -88 -25 -141 0 -39 19
-43 20 -52 4 -40 -66 -55 -82 -110 -109 -51 -25 -72 -30 -135 -30 -64 0 -82 4
-122 28 -27 15 -48 31 -48 35 0 4 -9 18 -18 30 l-18 24 -39 -26 c-65 -45 -149
-30 -195 33 l-21 30 -36 -25 c-47 -32 -119 -33 -158 -2 -31 24 -64 90 -65 129
0 25 -1 25 -48 16 -42 -9 -55 -7 -94 11 -63 31 -93 86 -84 156 l6 52 -43 11
c-108 29 -155 125 -106 217 11 21 19 39 17 40 -2 1 -16 10 -31 20 -39 24 -67
74 -67 119 0 44 12 70 48 110 l26 27 -23 21 c-57 54 -58 129 -2 183 l29 28
-24 46 c-49 92 -19 195 71 243 37 19 45 28 40 44 -4 11 -9 43 -11 70 -8 85 49
145 138 145 33 0 33 0 30 43 -5 66 31 125 99 160 59 31 102 31 160 2 28 -15
29 -15 35 12 25 116 103 166 195 126 24 -11 50 -27 58 -37 13 -15 16 -13 38
19 27 39 77 75 106 75 11 0 34 -7 53 -16z"/>
<path d="M4340 6042 c-19 -9 -41 -29 -50 -44 -14 -26 -13 -29 8 -50 l23 -23
39 23 c52 29 76 28 111 -7 22 -22 29 -39 29 -68 0 -22 5 -44 12 -51 32 -32 78
6 78 66 0 124 -139 210 -250 154z"/>
<path d="M3492 6019 c-17 -12 -35 -33 -39 -47 -13 -53 37 -79 83 -43 15 12 34
21 43 21 23 0 41 20 41 45 0 12 -5 26 -12 33 -19 19 -80 14 -116 -9z"/>
<path d="M3763 5970 c-67 -40 -82 -112 -27 -126 21 -5 31 0 55 26 28 30 33 32
75 25 52 -7 74 5 74 41 0 12 -10 30 -22 38 -32 23 -115 21 -155 -4z"/>
<path d="M3886 5744 c-235 -57 -399 -266 -400 -509 0 -285 227 -516 511 -517
238 -1 439 151 507 381 37 125 9 307 -63 420 -117 182 -347 275 -555 225z
m213 -99 c35 -9 86 -27 113 -42 72 -39 150 -127 177 -198 30 -79 38 -199 18
-284 -36 -149 -178 -273 -345 -302 -49 -9 -77 -8 -138 5 -136 27 -236 107
-298 236 -29 61 -31 72 -31 180 0 107 2 119 29 175 37 75 102 145 178 191 86
53 184 65 297 39z"/>
<path d="M3230 5728 c-56 -38 -74 -71 -78 -143 -5 -75 13 -115 52 -115 35 0
47 21 40 72 -8 57 15 105 54 114 37 9 52 23 52 48 0 50 -63 62 -120 24z"/>
<path d="M4777 5493 c-13 -12 -7 -61 9 -74 12 -10 15 -24 11 -60 -5 -38 -2
-50 14 -65 43 -39 99 34 85 111 -9 48 -51 95 -85 95 -15 0 -31 -3 -34 -7z"/>
<path d="M4718 4903 c-12 -13 -15 -32 -11 -70 5 -46 3 -54 -22 -79 -24 -24
-32 -26 -76 -21 -36 5 -52 2 -64 -9 -52 -53 38 -110 132 -85 51 14 108 75 123
132 19 71 -7 149 -50 149 -9 0 -24 -8 -32 -17z"/>
<path d="M3246 4878 c-37 -58 -28 -140 21 -199 50 -59 110 -72 134 -28 12 24
-11 69 -36 69 -28 0 -48 47 -42 98 3 26 1 55 -4 64 -14 25 -56 23 -73 -4z"/>
<path d="M3622 4638 c-31 -31 1 -93 62 -122 43 -20 80 -20 100 0 33 32 8 84
-40 84 -13 0 -34 11 -46 25 -23 27 -57 32 -76 13z"/>
<path d="M4361 4446 c-11 -24 -27 -46 -36 -50 -35 -13 -72 -6 -95 19 -31 33
-67 33 -82 -1 -16 -35 7 -72 64 -102 57 -31 122 -26 173 12 78 60 90 166 18
166 -18 0 -28 -10 -42 -44z"/>
<path d="M4260 2863 c0 -5 28 -111 62 -236 l62 -228 34 3 33 3 58 178 c32 98
60 180 63 182 3 3 22 -54 42 -127 21 -73 44 -157 53 -185 14 -52 15 -53 51
-53 l37 0 58 213 c32 116 60 222 64 235 5 19 2 22 -25 22 -35 0 -29 16 -89
-220 -20 -80 -39 -148 -42 -152 -4 -4 -28 65 -53 155 -63 221 -62 217 -96 217
-29 0 -29 -1 -87 -190 -32 -105 -62 -187 -65 -183 -4 5 -24 76 -44 158 -55
222 -53 215 -87 215 -16 0 -29 -3 -29 -7z"/>
<path d="M5094 2852 c-172 -81 -164 -371 12 -438 30 -11 64 -15 112 -12 85 4
138 35 179 105 23 40 28 59 28 123 0 94 -30 160 -93 204 -35 25 -53 30 -119
33 -62 3 -87 0 -119 -15z m163 -43 c68 -25 105 -87 106 -174 1 -117 -72 -192
-177 -183 -96 8 -145 64 -153 173 -4 49 0 68 19 105 37 72 129 108 205 79z"/>
<path d="M5560 2635 l0 -235 30 0 30 0 0 110 c0 61 4 110 8 110 4 0 52 -49
105 -110 95 -107 99 -110 139 -110 l42 0 -25 28 c-14 15 -64 70 -112 123 l-87
96 102 109 102 109 -35 3 c-32 4 -40 -3 -136 -105 l-102 -108 -1 108 0 107
-30 0 -30 0 0 -235z"/>
</g>
</svg>
